<mxfile host="Electron" agent="Mozilla/5.0 (Windows NT 10.0; Win64; x64) AppleWebKit/537.36 (KHTML, like Gecko) draw.io/26.0.4 Chrome/128.0.6613.186 Electron/32.2.5 Safari/537.36" version="26.0.4">
  <diagram name="Page-1" id="2YBvvXClWsGukQMizWep">
    <mxGraphModel dx="2580" dy="1258" grid="1" gridSize="10" guides="1" tooltips="1" connect="1" arrows="1" fold="1" page="1" pageScale="1" pageWidth="850" pageHeight="1100" math="0" shadow="0">
      <root>
        <mxCell id="0" />
        <mxCell id="1" parent="0" />
        <mxCell id="aM9ryv3xv72pqoxQDRHE-1" value="Customer" style="shape=umlLifeline;perimeter=lifelinePerimeter;whiteSpace=wrap;html=1;container=0;dropTarget=0;collapsible=0;recursiveResize=0;outlineConnect=0;portConstraint=eastwest;newEdgeStyle={&quot;edgeStyle&quot;:&quot;elbowEdgeStyle&quot;,&quot;elbow&quot;:&quot;vertical&quot;,&quot;curved&quot;:0,&quot;rounded&quot;:0};fillColor=#CCE5FF;" parent="1" vertex="1">
          <mxGeometry x="150" y="190" width="100" height="530" as="geometry" />
        </mxCell>
        <mxCell id="aM9ryv3xv72pqoxQDRHE-2" value="" style="html=1;points=[];perimeter=orthogonalPerimeter;outlineConnect=0;targetShapes=umlLifeline;portConstraint=eastwest;newEdgeStyle={&quot;edgeStyle&quot;:&quot;elbowEdgeStyle&quot;,&quot;elbow&quot;:&quot;vertical&quot;,&quot;curved&quot;:0,&quot;rounded&quot;:0};fillColor=#CCE5FF;" parent="aM9ryv3xv72pqoxQDRHE-1" vertex="1">
          <mxGeometry x="45" y="70" width="10" height="50" as="geometry" />
        </mxCell>
        <mxCell id="oIIINITRsta_YvvaZPx--41" value="" style="html=1;points=[];perimeter=orthogonalPerimeter;outlineConnect=0;targetShapes=umlLifeline;portConstraint=eastwest;newEdgeStyle={&quot;edgeStyle&quot;:&quot;elbowEdgeStyle&quot;,&quot;elbow&quot;:&quot;vertical&quot;,&quot;curved&quot;:0,&quot;rounded&quot;:0};fillColor=#CCE5FF;" parent="aM9ryv3xv72pqoxQDRHE-1" vertex="1">
          <mxGeometry x="45" y="310" width="10" height="120" as="geometry" />
        </mxCell>
        <mxCell id="aM9ryv3xv72pqoxQDRHE-5" value="Craftopia&#39;s System" style="shape=umlLifeline;perimeter=lifelinePerimeter;whiteSpace=wrap;html=1;container=0;dropTarget=0;collapsible=0;recursiveResize=0;outlineConnect=0;portConstraint=eastwest;newEdgeStyle={&quot;edgeStyle&quot;:&quot;elbowEdgeStyle&quot;,&quot;elbow&quot;:&quot;vertical&quot;,&quot;curved&quot;:0,&quot;rounded&quot;:0};fillColor=#CCE5FF;" parent="1" vertex="1">
          <mxGeometry x="420" y="190" width="100" height="530" as="geometry" />
        </mxCell>
        <mxCell id="aM9ryv3xv72pqoxQDRHE-6" value="" style="html=1;points=[];perimeter=orthogonalPerimeter;outlineConnect=0;targetShapes=umlLifeline;portConstraint=eastwest;newEdgeStyle={&quot;edgeStyle&quot;:&quot;elbowEdgeStyle&quot;,&quot;elbow&quot;:&quot;vertical&quot;,&quot;curved&quot;:0,&quot;rounded&quot;:0};fillColor=#CCE5FF;" parent="aM9ryv3xv72pqoxQDRHE-5" vertex="1">
          <mxGeometry x="45" y="80" width="10" height="380" as="geometry" />
        </mxCell>
        <mxCell id="aM9ryv3xv72pqoxQDRHE-7" value="place Order()" style="html=1;verticalAlign=bottom;endArrow=block;edgeStyle=elbowEdgeStyle;elbow=horizontal;curved=0;rounded=0;" parent="1" source="aM9ryv3xv72pqoxQDRHE-2" target="aM9ryv3xv72pqoxQDRHE-6" edge="1">
          <mxGeometry relative="1" as="geometry">
            <mxPoint x="395" y="280" as="sourcePoint" />
            <Array as="points">
              <mxPoint x="380" y="280" />
            </Array>
          </mxGeometry>
        </mxCell>
        <mxCell id="aM9ryv3xv72pqoxQDRHE-9" value="sendOrderConfirmationEmail()" style="html=1;verticalAlign=bottom;endArrow=block;edgeStyle=elbowEdgeStyle;elbow=vertical;curved=0;rounded=0;" parent="1" target="oIIINITRsta_YvvaZPx--41" edge="1">
          <mxGeometry relative="1" as="geometry">
            <mxPoint x="465" y="590" as="sourcePoint" />
            <Array as="points">
              <mxPoint x="410" y="590" />
              <mxPoint x="430" y="590" />
            </Array>
            <mxPoint x="220" y="590" as="targetPoint" />
          </mxGeometry>
        </mxCell>
        <mxCell id="oIIINITRsta_YvvaZPx--1" value="Craftopia&#39;s Order Placement Scenario" style="rounded=0;whiteSpace=wrap;html=1;fillColor=#CCE5FF;" parent="1" vertex="1">
          <mxGeometry x="360" y="80" width="290" height="60" as="geometry" />
        </mxCell>
        <mxCell id="oIIINITRsta_YvvaZPx--3" value="Artist" style="shape=umlLifeline;perimeter=lifelinePerimeter;whiteSpace=wrap;html=1;container=0;dropTarget=0;collapsible=0;recursiveResize=0;outlineConnect=0;portConstraint=eastwest;newEdgeStyle={&quot;edgeStyle&quot;:&quot;elbowEdgeStyle&quot;,&quot;elbow&quot;:&quot;vertical&quot;,&quot;curved&quot;:0,&quot;rounded&quot;:0};fillColor=#CCE5FF;" parent="1" vertex="1">
          <mxGeometry x="650" y="190" width="100" height="530" as="geometry" />
        </mxCell>
        <mxCell id="oIIINITRsta_YvvaZPx--4" value="" style="html=1;points=[];perimeter=orthogonalPerimeter;outlineConnect=0;targetShapes=umlLifeline;portConstraint=eastwest;newEdgeStyle={&quot;edgeStyle&quot;:&quot;elbowEdgeStyle&quot;,&quot;elbow&quot;:&quot;vertical&quot;,&quot;curved&quot;:0,&quot;rounded&quot;:0};fillColor=#CCE5FF;" parent="oIIINITRsta_YvvaZPx--3" vertex="1">
          <mxGeometry x="45" y="410" width="10" height="50" as="geometry" />
        </mxCell>
        <mxCell id="oIIINITRsta_YvvaZPx--6" value="" style="endArrow=classic;html=1;rounded=0;" parent="1" target="oIIINITRsta_YvvaZPx--4" edge="1">
          <mxGeometry width="50" height="50" relative="1" as="geometry">
            <mxPoint x="475" y="620" as="sourcePoint" />
            <mxPoint x="680" y="520" as="targetPoint" />
            <Array as="points">
              <mxPoint x="560" y="620" />
            </Array>
          </mxGeometry>
        </mxCell>
        <mxCell id="oIIINITRsta_YvvaZPx--7" value="notify Artist of new Order(orderID)" style="edgeLabel;html=1;align=center;verticalAlign=middle;resizable=0;points=[];" parent="oIIINITRsta_YvvaZPx--6" vertex="1" connectable="0">
          <mxGeometry x="-0.0984" y="1" relative="1" as="geometry">
            <mxPoint x="13" y="-9" as="offset" />
          </mxGeometry>
        </mxCell>
        <mxCell id="oIIINITRsta_YvvaZPx--10" value="" style="endArrow=classic;html=1;rounded=0;" parent="1" target="oIIINITRsta_YvvaZPx--41" edge="1">
          <mxGeometry width="50" height="50" relative="1" as="geometry">
            <mxPoint x="465" y="550" as="sourcePoint" />
            <mxPoint x="220" y="550" as="targetPoint" />
            <Array as="points">
              <mxPoint x="275" y="550" />
            </Array>
          </mxGeometry>
        </mxCell>
        <mxCell id="oIIINITRsta_YvvaZPx--11" value="confirm Order(orderID)" style="edgeLabel;html=1;align=center;verticalAlign=middle;resizable=0;points=[];" parent="oIIINITRsta_YvvaZPx--10" vertex="1" connectable="0">
          <mxGeometry x="0.0004" y="1" relative="1" as="geometry">
            <mxPoint y="-16" as="offset" />
          </mxGeometry>
        </mxCell>
        <mxCell id="oIIINITRsta_YvvaZPx--15" value="Escrow Payment System" style="shape=umlLifeline;perimeter=lifelinePerimeter;whiteSpace=wrap;html=1;container=0;dropTarget=0;collapsible=0;recursiveResize=0;outlineConnect=0;portConstraint=eastwest;newEdgeStyle={&quot;edgeStyle&quot;:&quot;elbowEdgeStyle&quot;,&quot;elbow&quot;:&quot;vertical&quot;,&quot;curved&quot;:0,&quot;rounded&quot;:0};fillColor=#CCE5FF;" parent="1" vertex="1">
          <mxGeometry x="810" y="190" width="100" height="530" as="geometry" />
        </mxCell>
        <mxCell id="oIIINITRsta_YvvaZPx--16" value="" style="html=1;points=[];perimeter=orthogonalPerimeter;outlineConnect=0;targetShapes=umlLifeline;portConstraint=eastwest;newEdgeStyle={&quot;edgeStyle&quot;:&quot;elbowEdgeStyle&quot;,&quot;elbow&quot;:&quot;vertical&quot;,&quot;curved&quot;:0,&quot;rounded&quot;:0};fillColor=#CCE5FF;" parent="oIIINITRsta_YvvaZPx--15" vertex="1">
          <mxGeometry x="45" y="100" width="10" height="60" as="geometry" />
        </mxCell>
        <mxCell id="oIIINITRsta_YvvaZPx--17" value="" style="endArrow=classic;html=1;rounded=0;" parent="1" target="oIIINITRsta_YvvaZPx--16" edge="1">
          <mxGeometry width="50" height="50" relative="1" as="geometry">
            <mxPoint x="475" y="300" as="sourcePoint" />
            <mxPoint x="840" y="300" as="targetPoint" />
          </mxGeometry>
        </mxCell>
        <mxCell id="oIIINITRsta_YvvaZPx--18" value="Initiate Payment(amount, order ID)" style="edgeLabel;html=1;align=center;verticalAlign=middle;resizable=0;points=[];" parent="oIIINITRsta_YvvaZPx--17" vertex="1" connectable="0">
          <mxGeometry x="-0.2763" y="4" relative="1" as="geometry">
            <mxPoint y="-6" as="offset" />
          </mxGeometry>
        </mxCell>
        <mxCell id="oIIINITRsta_YvvaZPx--19" value="" style="endArrow=classic;html=1;rounded=0;" parent="1" target="oIIINITRsta_YvvaZPx--41" edge="1">
          <mxGeometry width="50" height="50" relative="1" as="geometry">
            <mxPoint x="465" y="510" as="sourcePoint" />
            <mxPoint x="220" y="510" as="targetPoint" />
          </mxGeometry>
        </mxCell>
        <mxCell id="oIIINITRsta_YvvaZPx--20" value="confirm Payment()" style="edgeLabel;html=1;align=center;verticalAlign=middle;resizable=0;points=[];" parent="oIIINITRsta_YvvaZPx--19" vertex="1" connectable="0">
          <mxGeometry x="0.013" y="1" relative="1" as="geometry">
            <mxPoint x="3" y="-11" as="offset" />
          </mxGeometry>
        </mxCell>
        <mxCell id="oIIINITRsta_YvvaZPx--24" value="Return payment status&amp;nbsp;" style="html=1;verticalAlign=bottom;endArrow=open;dashed=1;endSize=8;edgeStyle=elbowEdgeStyle;elbow=vertical;curved=0;rounded=0;" parent="1" source="oIIINITRsta_YvvaZPx--16" edge="1">
          <mxGeometry relative="1" as="geometry">
            <mxPoint x="475" y="340" as="targetPoint" />
            <Array as="points" />
            <mxPoint x="840" y="340" as="sourcePoint" />
          </mxGeometry>
        </mxCell>
        <mxCell id="oIIINITRsta_YvvaZPx--32" value="alt" style="shape=umlFrame;whiteSpace=wrap;html=1;pointerEvents=0;" parent="1" vertex="1">
          <mxGeometry x="100" y="360" width="670" height="300" as="geometry" />
        </mxCell>
        <mxCell id="oIIINITRsta_YvvaZPx--42" value="" style="endArrow=none;dashed=1;html=1;rounded=0;entryX=0.998;entryY=0.579;entryDx=0;entryDy=0;entryPerimeter=0;exitX=-0.001;exitY=0.368;exitDx=0;exitDy=0;exitPerimeter=0;" parent="1" source="oIIINITRsta_YvvaZPx--32" edge="1">
          <mxGeometry width="50" height="50" relative="1" as="geometry">
            <mxPoint x="114.61999999999995" y="470.00000000000006" as="sourcePoint" />
            <mxPoint x="770.0000000000003" y="470.00000000000006" as="targetPoint" />
          </mxGeometry>
        </mxCell>
        <mxCell id="oIIINITRsta_YvvaZPx--43" value="&lt;font style=&quot;font-size: 9px;&quot;&gt;[ Payment Failed ]&lt;/font&gt;" style="text;html=1;align=center;verticalAlign=middle;whiteSpace=wrap;rounded=0;" parent="1" vertex="1">
          <mxGeometry x="95" y="390" width="100" height="30" as="geometry" />
        </mxCell>
        <mxCell id="oIIINITRsta_YvvaZPx--44" value="&lt;font style=&quot;font-size: 9px;&quot;&gt;[ Payment Successful ]&lt;/font&gt;" style="text;whiteSpace=wrap;html=1;" parent="1" vertex="1">
          <mxGeometry x="110" y="470" width="100" height="30" as="geometry" />
        </mxCell>
        <mxCell id="oIIINITRsta_YvvaZPx--45" value="" style="html=1;points=[];perimeter=orthogonalPerimeter;outlineConnect=0;targetShapes=umlLifeline;portConstraint=eastwest;newEdgeStyle={&quot;edgeStyle&quot;:&quot;elbowEdgeStyle&quot;,&quot;elbow&quot;:&quot;vertical&quot;,&quot;curved&quot;:0,&quot;rounded&quot;:0};fillColor=#CCE5FF;" parent="1" vertex="1">
          <mxGeometry x="195" y="380" width="10" height="70" as="geometry" />
        </mxCell>
        <mxCell id="oIIINITRsta_YvvaZPx--47" value="" style="endArrow=classic;html=1;rounded=0;" parent="1" edge="1">
          <mxGeometry width="50" height="50" relative="1" as="geometry">
            <mxPoint x="465" y="404.5" as="sourcePoint" />
            <mxPoint x="205" y="404.5" as="targetPoint" />
          </mxGeometry>
        </mxCell>
        <mxCell id="oIIINITRsta_YvvaZPx--48" value="&lt;span style=&quot;color: rgba(0, 0, 0, 0); font-family: monospace; font-size: 0px; text-align: start; background-color: rgb(251, 251, 251);&quot;&gt;%3CmxGraphModel%3E%3Croot%3E%3CmxCell%20id%3D%220%22%2F%3E%3CmxCell%20id%3D%221%22%20parent%3D%220%22%2F%3E%3CmxCell%20id%3D%222%22%20value%3D%22%22%20style%3D%22endArrow%3Dclassic%3Bhtml%3D1%3Brounded%3D0%3B%22%20edge%3D%221%22%20parent%3D%221%22%3E%3CmxGeometry%20width%3D%2250%22%20height%3D%2250%22%20relative%3D%221%22%20as%3D%22geometry%22%3E%3CmxPoint%20x%3D%22465%22%20y%3D%22510%22%20as%3D%22sourcePoint%22%2F%3E%3CmxPoint%20x%3D%22205%22%20y%3D%22510%22%20as%3D%22targetPoint%22%2F%3E%3C%2FmxGeometry%3E%3C%2FmxCell%3E%3CmxCell%20id%3D%223%22%20value%3D%22confirm%20Payment()%22%20style%3D%22edgeLabel%3Bhtml%3D1%3Balign%3Dcenter%3BverticalAlign%3Dmiddle%3Bresizable%3D0%3Bpoints%3D%5B%5D%3B%22%20vertex%3D%221%22%20connectable%3D%220%22%20parent%3D%222%22%3E%3CmxGeometry%20x%3D%220.013%22%20y%3D%221%22%20relative%3D%221%22%20as%3D%22geometry%22%3E%3CmxPoint%20x%3D%223%22%20y%3D%22-11%22%20as%3D%22offset%22%2F%3E%3C%2FmxGeometry%3E%3C%2FmxCell%3E%3C%2Froot%3E%3C%2FmxGraphModel%3E&lt;/span&gt;&lt;span style=&quot;color: rgba(0, 0, 0, 0); font-family: monospace; font-size: 0px; text-align: start; background-color: rgb(251, 251, 251);&quot;&gt;%3CmxGraphModel%3E%3Croot%3E%3CmxCell%20id%3D%220%22%2F%3E%3CmxCell%20id%3D%221%22%20parent%3D%220%22%2F%3E%3CmxCell%20id%3D%222%22%20value%3D%22%22%20style%3D%22endArrow%3Dclassic%3Bhtml%3D1%3Brounded%3D0%3B%22%20edge%3D%221%22%20parent%3D%221%22%3E%3CmxGeometry%20width%3D%2250%22%20height%3D%2250%22%20relative%3D%221%22%20as%3D%22geometry%22%3E%3CmxPoint%20x%3D%22465%22%20y%3D%22510%22%20as%3D%22sourcePoint%22%2F%3E%3CmxPoint%20x%3D%22205%22%20y%3D%22510%22%20as%3D%22targetPoint%22%2F%3E%3C%2FmxGeometry%3E%3C%2FmxCell%3E%3CmxCell%20id%3D%223%22%20value%3D%22confirm%20Payment()%22%20style%3D%22edgeLabel%3Bhtml%3D1%3Balign%3Dcenter%3BverticalAlign%3Dmiddle%3Bresizable%3D0%3Bpoints%3D%5B%5D%3B%22%20vertex%3D%221%22%20connectable%3D%220%22%20parent%3D%222%22%3E%3CmxGeometry%20x%3D%220.013%22%20y%3D%221%22%20relative%3D%221%22%20as%3D%22geometry%22%3E%3CmxPoint%20x%3D%223%22%20y%3D%22-11%22%20as%3D%22offset%22%2F%3E%3C%2FmxGeometry%3E%3C%2FmxCell%3E%3C%2Froot%3E%3C%2FmxGraphModel%3E&lt;/span&gt;notifyPaymentFailure()" style="edgeLabel;html=1;align=center;verticalAlign=middle;resizable=0;points=[];" parent="oIIINITRsta_YvvaZPx--47" vertex="1" connectable="0">
          <mxGeometry x="0.013" y="1" relative="1" as="geometry">
            <mxPoint x="3" y="-11" as="offset" />
          </mxGeometry>
        </mxCell>
        <mxCell id="oIIINITRsta_YvvaZPx--51" value="Craftopia&#39;s Category Request Scenario" style="rounded=0;whiteSpace=wrap;html=1;fillColor=#CCE5FF;" parent="1" vertex="1">
          <mxGeometry x="730" y="770" width="290" height="60" as="geometry" />
        </mxCell>
        <mxCell id="oIIINITRsta_YvvaZPx--58" value="Artist" style="shape=umlLifeline;perimeter=lifelinePerimeter;whiteSpace=wrap;html=1;container=0;dropTarget=0;collapsible=0;recursiveResize=0;outlineConnect=0;portConstraint=eastwest;newEdgeStyle={&quot;edgeStyle&quot;:&quot;elbowEdgeStyle&quot;,&quot;elbow&quot;:&quot;vertical&quot;,&quot;curved&quot;:0,&quot;rounded&quot;:0};fillColor=#CCE5FF;" parent="1" vertex="1">
          <mxGeometry x="580" y="880" width="100" height="400" as="geometry" />
        </mxCell>
        <mxCell id="oIIINITRsta_YvvaZPx--59" value="" style="html=1;points=[];perimeter=orthogonalPerimeter;outlineConnect=0;targetShapes=umlLifeline;portConstraint=eastwest;newEdgeStyle={&quot;edgeStyle&quot;:&quot;elbowEdgeStyle&quot;,&quot;elbow&quot;:&quot;vertical&quot;,&quot;curved&quot;:0,&quot;rounded&quot;:0};fillColor=#CCE5FF;" parent="oIIINITRsta_YvvaZPx--58" vertex="1">
          <mxGeometry x="45" y="70" width="10" height="50" as="geometry" />
        </mxCell>
        <mxCell id="oIIINITRsta_YvvaZPx--60" value="" style="html=1;points=[];perimeter=orthogonalPerimeter;outlineConnect=0;targetShapes=umlLifeline;portConstraint=eastwest;newEdgeStyle={&quot;edgeStyle&quot;:&quot;elbowEdgeStyle&quot;,&quot;elbow&quot;:&quot;vertical&quot;,&quot;curved&quot;:0,&quot;rounded&quot;:0};fillColor=#CCE5FF;" parent="oIIINITRsta_YvvaZPx--58" vertex="1">
          <mxGeometry x="45" y="210" width="10" height="30" as="geometry" />
        </mxCell>
        <mxCell id="oIIINITRsta_YvvaZPx--61" value="Craftopia&#39;s System" style="shape=umlLifeline;perimeter=lifelinePerimeter;whiteSpace=wrap;html=1;container=0;dropTarget=0;collapsible=0;recursiveResize=0;outlineConnect=0;portConstraint=eastwest;newEdgeStyle={&quot;edgeStyle&quot;:&quot;elbowEdgeStyle&quot;,&quot;elbow&quot;:&quot;vertical&quot;,&quot;curved&quot;:0,&quot;rounded&quot;:0};fillColor=#CCE5FF;" parent="1" vertex="1">
          <mxGeometry x="790" y="880" width="100" height="400" as="geometry" />
        </mxCell>
        <mxCell id="oIIINITRsta_YvvaZPx--62" value="" style="html=1;points=[];perimeter=orthogonalPerimeter;outlineConnect=0;targetShapes=umlLifeline;portConstraint=eastwest;newEdgeStyle={&quot;edgeStyle&quot;:&quot;elbowEdgeStyle&quot;,&quot;elbow&quot;:&quot;vertical&quot;,&quot;curved&quot;:0,&quot;rounded&quot;:0};fillColor=#CCE5FF;" parent="oIIINITRsta_YvvaZPx--61" vertex="1">
          <mxGeometry x="45" y="70" width="10" height="260" as="geometry" />
        </mxCell>
        <mxCell id="oIIINITRsta_YvvaZPx--64" value="Admin" style="shape=umlLifeline;perimeter=lifelinePerimeter;whiteSpace=wrap;html=1;container=0;dropTarget=0;collapsible=0;recursiveResize=0;outlineConnect=0;portConstraint=eastwest;newEdgeStyle={&quot;edgeStyle&quot;:&quot;elbowEdgeStyle&quot;,&quot;elbow&quot;:&quot;vertical&quot;,&quot;curved&quot;:0,&quot;rounded&quot;:0};fillColor=#CCE5FF;" parent="1" vertex="1">
          <mxGeometry x="1070" y="880" width="100" height="400" as="geometry" />
        </mxCell>
        <mxCell id="oIIINITRsta_YvvaZPx--65" value="" style="html=1;points=[];perimeter=orthogonalPerimeter;outlineConnect=0;targetShapes=umlLifeline;portConstraint=eastwest;newEdgeStyle={&quot;edgeStyle&quot;:&quot;elbowEdgeStyle&quot;,&quot;elbow&quot;:&quot;vertical&quot;,&quot;curved&quot;:0,&quot;rounded&quot;:0};fillColor=#CCE5FF;" parent="oIIINITRsta_YvvaZPx--64" vertex="1">
          <mxGeometry x="45" y="80" width="10" height="230" as="geometry" />
        </mxCell>
        <mxCell id="oIIINITRsta_YvvaZPx--67" value="" style="endArrow=classic;html=1;rounded=0;" parent="1" edge="1">
          <mxGeometry width="50" height="50" relative="1" as="geometry">
            <mxPoint x="635" y="960" as="sourcePoint" />
            <mxPoint x="835" y="960" as="targetPoint" />
          </mxGeometry>
        </mxCell>
        <mxCell id="oIIINITRsta_YvvaZPx--68" value="requestNewCategory()" style="edgeLabel;html=1;align=center;verticalAlign=middle;resizable=0;points=[];" parent="oIIINITRsta_YvvaZPx--67" vertex="1" connectable="0">
          <mxGeometry x="-0.0067" y="1" relative="1" as="geometry">
            <mxPoint x="-4" y="-14" as="offset" />
          </mxGeometry>
        </mxCell>
        <mxCell id="oIIINITRsta_YvvaZPx--69" value="" style="endArrow=classic;html=1;rounded=0;" parent="1" target="oIIINITRsta_YvvaZPx--65" edge="1">
          <mxGeometry width="50" height="50" relative="1" as="geometry">
            <mxPoint x="845" y="980" as="sourcePoint" />
            <mxPoint x="1100" y="980" as="targetPoint" />
          </mxGeometry>
        </mxCell>
        <mxCell id="oIIINITRsta_YvvaZPx--70" value="notifyAdmin()" style="edgeLabel;html=1;align=center;verticalAlign=middle;resizable=0;points=[];" parent="oIIINITRsta_YvvaZPx--69" vertex="1" connectable="0">
          <mxGeometry x="-0.007" y="-1" relative="1" as="geometry">
            <mxPoint y="-16" as="offset" />
          </mxGeometry>
        </mxCell>
        <mxCell id="oIIINITRsta_YvvaZPx--73" value="" style="endArrow=classic;html=1;rounded=0;" parent="1" edge="1">
          <mxGeometry width="50" height="50" relative="1" as="geometry">
            <mxPoint x="1115" y="1020.0000000000002" as="sourcePoint" />
            <mxPoint x="845" y="1020.0000000000002" as="targetPoint" />
          </mxGeometry>
        </mxCell>
        <mxCell id="oIIINITRsta_YvvaZPx--74" value="reviewRequest()" style="edgeLabel;html=1;align=center;verticalAlign=middle;resizable=0;points=[];" parent="oIIINITRsta_YvvaZPx--73" vertex="1" connectable="0">
          <mxGeometry x="-0.0148" relative="1" as="geometry">
            <mxPoint x="-1" y="-10" as="offset" />
          </mxGeometry>
        </mxCell>
        <mxCell id="oIIINITRsta_YvvaZPx--91" value="alt" style="shape=umlFrame;whiteSpace=wrap;html=1;pointerEvents=0;" parent="1" vertex="1">
          <mxGeometry x="510" y="1040" width="630" height="190" as="geometry" />
        </mxCell>
        <mxCell id="oIIINITRsta_YvvaZPx--92" value="" style="endArrow=classic;html=1;rounded=0;" parent="1" edge="1">
          <mxGeometry width="50" height="50" relative="1" as="geometry">
            <mxPoint x="1115" y="1070" as="sourcePoint" />
            <mxPoint x="845" y="1070" as="targetPoint" />
          </mxGeometry>
        </mxCell>
        <mxCell id="oIIINITRsta_YvvaZPx--93" value="approveRequest()" style="edgeLabel;html=1;align=center;verticalAlign=middle;resizable=0;points=[];" parent="oIIINITRsta_YvvaZPx--92" vertex="1" connectable="0">
          <mxGeometry x="-0.0148" relative="1" as="geometry">
            <mxPoint x="-1" y="-10" as="offset" />
          </mxGeometry>
        </mxCell>
        <mxCell id="oIIINITRsta_YvvaZPx--94" value="" style="endArrow=classic;html=1;rounded=0;" parent="1" edge="1">
          <mxGeometry width="50" height="50" relative="1" as="geometry">
            <mxPoint x="1115" y="1180" as="sourcePoint" />
            <mxPoint x="845" y="1180" as="targetPoint" />
          </mxGeometry>
        </mxCell>
        <mxCell id="oIIINITRsta_YvvaZPx--95" value="rejectRequest()" style="edgeLabel;html=1;align=center;verticalAlign=middle;resizable=0;points=[];" parent="oIIINITRsta_YvvaZPx--94" vertex="1" connectable="0">
          <mxGeometry x="-0.0148" relative="1" as="geometry">
            <mxPoint x="-1" y="-10" as="offset" />
          </mxGeometry>
        </mxCell>
        <mxCell id="oIIINITRsta_YvvaZPx--96" value="" style="endArrow=classic;html=1;rounded=0;" parent="1" target="oIIINITRsta_YvvaZPx--60" edge="1">
          <mxGeometry width="50" height="50" relative="1" as="geometry">
            <mxPoint x="835" y="1100" as="sourcePoint" />
            <mxPoint x="650" y="1100" as="targetPoint" />
          </mxGeometry>
        </mxCell>
        <mxCell id="oIIINITRsta_YvvaZPx--97" value="notifyApproval()" style="edgeLabel;html=1;align=center;verticalAlign=middle;resizable=0;points=[];" parent="oIIINITRsta_YvvaZPx--96" vertex="1" connectable="0">
          <mxGeometry x="-0.0148" relative="1" as="geometry">
            <mxPoint x="-1" y="-10" as="offset" />
          </mxGeometry>
        </mxCell>
        <mxCell id="oIIINITRsta_YvvaZPx--98" value="" style="endArrow=classic;html=1;rounded=0;" parent="1" edge="1">
          <mxGeometry width="50" height="50" relative="1" as="geometry">
            <mxPoint x="835" y="1190" as="sourcePoint" />
            <mxPoint x="635" y="1190" as="targetPoint" />
          </mxGeometry>
        </mxCell>
        <mxCell id="oIIINITRsta_YvvaZPx--99" value="notifyRejection()" style="edgeLabel;html=1;align=center;verticalAlign=middle;resizable=0;points=[];" parent="oIIINITRsta_YvvaZPx--98" vertex="1" connectable="0">
          <mxGeometry x="-0.0148" relative="1" as="geometry">
            <mxPoint x="-1" y="-10" as="offset" />
          </mxGeometry>
        </mxCell>
        <mxCell id="oIIINITRsta_YvvaZPx--100" value="" style="endArrow=classic;html=1;rounded=0;" parent="1" edge="1">
          <mxGeometry width="50" height="50" relative="1" as="geometry">
            <mxPoint x="1115" y="1120" as="sourcePoint" />
            <mxPoint x="845" y="1120" as="targetPoint" />
          </mxGeometry>
        </mxCell>
        <mxCell id="oIIINITRsta_YvvaZPx--101" value="addCategory()" style="edgeLabel;html=1;align=center;verticalAlign=middle;resizable=0;points=[];" parent="oIIINITRsta_YvvaZPx--100" vertex="1" connectable="0">
          <mxGeometry x="-0.0148" relative="1" as="geometry">
            <mxPoint x="-1" y="-10" as="offset" />
          </mxGeometry>
        </mxCell>
        <mxCell id="oIIINITRsta_YvvaZPx--102" value="" style="endArrow=none;dashed=1;html=1;rounded=0;exitX=0.002;exitY=0.55;exitDx=0;exitDy=0;exitPerimeter=0;" parent="1" source="oIIINITRsta_YvvaZPx--91" edge="1">
          <mxGeometry width="50" height="50" relative="1" as="geometry">
            <mxPoint x="567.2200000000003" y="1144.47" as="sourcePoint" />
            <mxPoint x="1112.79" y="1144.47" as="targetPoint" />
          </mxGeometry>
        </mxCell>
        <mxCell id="oIIINITRsta_YvvaZPx--104" value="&lt;font style=&quot;font-size: 9px;&quot;&gt;[ On Approval]&lt;/font&gt;" style="text;html=1;align=center;verticalAlign=middle;whiteSpace=wrap;rounded=0;" parent="1" vertex="1">
          <mxGeometry x="500" y="1070" width="100" height="30" as="geometry" />
        </mxCell>
        <mxCell id="oIIINITRsta_YvvaZPx--105" value="&lt;font style=&quot;font-size: 9px;&quot;&gt;[ On rejection]&lt;/font&gt;" style="text;html=1;align=center;verticalAlign=middle;whiteSpace=wrap;rounded=0;" parent="1" vertex="1">
          <mxGeometry x="500" y="1150" width="100" height="30" as="geometry" />
        </mxCell>
        <mxCell id="oIIINITRsta_YvvaZPx--107" value="" style="html=1;points=[];perimeter=orthogonalPerimeter;outlineConnect=0;targetShapes=umlLifeline;portConstraint=eastwest;newEdgeStyle={&quot;edgeStyle&quot;:&quot;elbowEdgeStyle&quot;,&quot;elbow&quot;:&quot;vertical&quot;,&quot;curved&quot;:0,&quot;rounded&quot;:0};fillColor=#CCE5FF;" parent="1" vertex="1">
          <mxGeometry x="625" y="1170" width="10" height="30" as="geometry" />
        </mxCell>
      </root>
    </mxGraphModel>
  </diagram>
</mxfile>
